# xmcd
#
# Track frame offsets:
#	150
#	16541
#	33276
#	50173
#	62983
#	74273
#	89946
#	111297
#	129705
#	144365
#	163618
#
# Disc length: 2349 seconds
#
# Revision: 1
# Processed by: cddbd v1.5.1PL0 Copyright (c) Steve Scherf et al.
# Submitted via: audiograbber 1.82.02
#
DISCID=9e092b0b
DTITLE=Makhulu - Wondering
DYEAR=1999
DGENRE=Blues
TTITLE0=Hoza Honey
TTITLE1=Still got that thing for you
TTITLE2=Jiving
TTITLE3=I'm wondering
TTITLE4=Inmates '63
TTITLE5=Bad luck
TTITLE6=Time to say good-bye
TTITLE7=Don't you lie to me
TTITLE8=Lobola blues
TTITLE9=Love worth waiting for
TTITLE10=Blue's tango
EXTD=South African Artist
EXTT0=
EXTT1=
EXTT2=
EXTT3=
EXTT4=
EXTT5=
EXTT6=
EXTT7=
EXTT8=
EXTT9=
EXTT10=
PLAYORDER=
